<?xml version="1.0" encoding="UTF-8"?>
<svg version="1.1" xmlns="http://www.w3.org/2000/svg" width="64" height="64">
<path d="M0 0 C3.79758842 1.08788644 6.17552768 3.63272229 8.87365723 6.40734863 C9.4838269 7.0098645 10.09399658 7.61238037 10.72265625 8.2331543 C12.00289261 9.50796488 13.27315426 10.79286245 14.53381348 12.08703613 C16.46222008 14.05829621 18.42961122 15.98320571 20.40490723 17.90734863 C21.64706359 19.15479179 22.88673581 20.40471451 24.12365723 21.65734863 C24.71102661 22.22852417 25.298396 22.79969971 25.90356445 23.38818359 C28.83829834 26.4613087 30.33407002 28.53546526 30.4576416 32.87023926 C29.96740723 36.56359863 29.96740723 36.56359863 27.96740723 38.56359863 C26.64740723 38.56359863 25.32740723 38.56359863 23.96740723 38.56359863 C23.98311768 39.48640625 23.98311768 39.48640625 23.99914551 40.42785645 C24.04079418 43.22306206 24.06676139 46.01820229 24.09240723 48.81359863 C24.10916504 49.78168457 24.12592285 50.74977051 24.14318848 51.74719238 C24.15285645 53.14904785 24.15285645 53.14904785 24.16271973 54.57922363 C24.17843018 55.86748047 24.17843018 55.86748047 24.19445801 57.1817627 C23.94669205 59.78090747 23.36269792 61.36811271 21.96740723 63.56359863 C18.78194434 65.15633008 15.33541375 64.66501697 11.84240723 64.62609863 C9.24365723 64.60547363 6.64490723 64.58484863 3.96740723 64.56359863 C3.63740723 58.29359863 3.30740723 52.02359863 2.96740723 45.56359863 C-0.33259277 45.56359863 -3.63259277 45.56359863 -7.03259277 45.56359863 C-7.36259277 51.83359863 -7.69259277 58.10359863 -8.03259277 64.56359863 C-11.89978027 64.65641113 -11.89978027 64.65641113 -15.84509277 64.75109863 C-17.05709351 64.79206665 -17.05709351 64.79206665 -18.2935791 64.8338623 C-23.56622985 64.89537987 -23.56622985 64.89537987 -25.98181152 63.17687988 C-27.93612959 60.17638412 -28.15169117 58.33393304 -28.13024902 54.77453613 C-28.12541504 53.3630127 -28.12541504 53.3630127 -28.1204834 51.92297363 C-28.11210449 50.93812988 -28.10372559 49.95328613 -28.09509277 48.93859863 C-28.09058105 47.94602051 -28.08606934 46.95344238 -28.0814209 45.93078613 C-28.06961422 43.47499703 -28.05314678 41.01932759 -28.03259277 38.56359863 C-28.83696777 38.41922363 -29.64134277 38.27484863 -30.47009277 38.12609863 C-33.03259277 37.56359863 -33.03259277 37.56359863 -34.03259277 36.56359863 C-34.81503595 29.92176361 -34.81503595 29.92176361 -32.9967041 26.76550293 C-31.47946471 24.95402699 -29.88292487 23.30472468 -28.18884277 21.65734863 C-27.5863269 21.04717896 -26.98381104 20.43700928 -26.36303711 19.80834961 C-25.08822652 18.52811325 -23.80332895 17.2578516 -22.50915527 15.99719238 C-20.53789519 14.06878578 -18.61298569 12.10139464 -16.68884277 10.12609863 C-15.44139962 8.88394227 -14.1914769 7.64427005 -12.93884277 6.40734863 C-12.08207947 5.52629456 -12.08207947 5.52629456 -11.20800781 4.62744141 C-7.68891485 1.26682281 -4.96982288 -0.4080084 0 0 Z " fill="#FFFFFF" transform="translate(34.0325927734375,-0.5635986328125)"/>
</svg>
